<!-- Generated by IcoMoon.io -->
<svg version="1.1" xmlns="http://www.w3.org/2000/svg" width="40" height="32" viewBox="0 0 40 32">
<title>Vector-1</title>
<path d="M19.38 0c-0.001 0-0.003 0-0.005 0-1.954 0-3.748 0.683-5.157 1.824l0.015-0.012c-1.413 1.143-2.42 2.736-2.805 4.56l-0.009 0.052-0.144 0.72c-0.022 0.086-0.034 0.185-0.034 0.287 0 0.422 0.215 0.793 0.542 1.010l0.004 0.003c0.196 0.132 0.437 0.21 0.697 0.21 0.615 0 1.127-0.44 1.238-1.023l0.001-0.008 0.148-0.714c0.296-1.387 1.078-2.554 2.156-3.341l0.016-0.011c0.923-0.675 2.081-1.080 3.333-1.080 1.642 0 3.122 0.697 4.16 1.81l0.003 0.003c0.936 1.014 1.456 2.334 1.46 3.706-0.003 1.534-0.633 2.919-1.647 3.915l-0.001 0.001c-1.023 1.004-2.425 1.624-3.973 1.624-0.002 0-0.003 0-0.005 0h-18.122c-0.001 0-0.001 0-0.002 0-0.343 0-0.655 0.137-0.882 0.36l0-0c-0.225 0.221-0.365 0.529-0.365 0.87s0.14 0.649 0.365 0.87l0 0c0.227 0.223 0.538 0.361 0.882 0.362h18.126c2.199-0.052 4.176-0.963 5.616-2.41l0-0c1.426-1.433 2.309-3.408 2.312-5.589v-0.001c-0.003-2.181-0.884-4.155-2.308-5.588l0 0c-1.44-1.447-3.416-2.359-5.606-2.412l-0.010-0zM33.75 11.076c-0.002 0-0.004 0-0.007 0-1.719 0-3.277 0.689-4.414 1.805l0.001-0.001c-1.128 1.107-1.827 2.646-1.83 4.35v0c0 0.328 0.132 0.64 0.366 0.872 0.227 0.224 0.54 0.362 0.884 0.362s0.657-0.138 0.884-0.362l-0 0c0.226-0.222 0.366-0.53 0.366-0.871 0-0 0-0.001 0-0.001v0c0-0.73 0.22-1.444 0.632-2.050 0.412-0.608 0.998-1.080 1.682-1.36 0.424-0.177 0.916-0.28 1.433-0.28 1.033 0 1.971 0.412 2.656 1.081l-0.001-0.001c0.678 0.662 1.099 1.585 1.099 2.607 0 0.512-0.106 0.999-0.296 1.441l0.009-0.024c-0.296 0.688-0.77 1.252-1.366 1.647l-0.014 0.009c-0.618 0.406-1.342 0.622-2.084 0.622h-32.5c-0.001 0-0.001 0-0.002 0-0.343 0-0.655 0.137-0.882 0.36l0-0c-0.226 0.222-0.366 0.53-0.366 0.871s0.14 0.649 0.366 0.871l0 0c0.227 0.223 0.538 0.36 0.882 0.36 0.001 0 0.002 0 0.002 0h24.376c0.828 0.002 1.622 0.328 2.206 0.906 0.586 0.58 0.914 1.36 0.912 2.178-0.002 0.816-0.332 1.598-0.92 2.174-0.573 0.555-1.355 0.897-2.218 0.897-0.776 0-1.487-0.277-2.040-0.737l0.005 0.004c-0.554-0.461-0.942-1.105-1.073-1.837l-0.003-0.019-0.014-0.074c-0.047-0.342-0.231-0.634-0.492-0.824l-0.004-0.002c-0.204-0.149-0.461-0.239-0.738-0.239-0.596 0-1.096 0.414-1.226 0.97l-0.002 0.009c-0.016 0.075-0.026 0.161-0.026 0.249 0 0.085 0.009 0.167 0.025 0.247l-0.001-0.008 0.012 0.074c0.222 1.3 0.904 2.48 1.926 3.33 0.982 0.821 2.259 1.32 3.652 1.32 1.552 0 2.959-0.619 3.989-1.623l-0.001 0.001c1.056-1.040 1.652-2.448 1.654-3.92 0-1.14-0.35-2.196-0.948-3.076h3.448c0.003 0 0.007 0 0.011 0 1.717 0 3.274-0.687 4.41-1.801l-0.001 0.001c1.172-1.156 1.83-2.72 1.83-4.354 0-1.632-0.66-3.196-1.83-4.35-1.136-1.115-2.694-1.804-4.413-1.804-0.002 0-0.005 0-0.007 0h0z"></path>
<path d="M19.38 0l0.248-9.996-0.128-0.004h-0.12l0.002 10zM11.42 6.424l-9.8-1.994-0.002 0.018 9.802 1.976zM11.276 7.144l9.724 2.33 0.040-0.176 0.038-0.178-9.802-1.976zM13.724 7.624l-9.794-2.014-0.038 0.186-0.030 0.184 9.862 1.648zM13.872 6.91l-9.792-2.018 9.794 2.018zM25 7.998h10v-0.026l-10 0.028zM19.374 13.538v10h0.006l-0.004-10zM0 14.77v0zM19.376 16v10h0.12l0.12-0.004-0.24-9.996zM30 17.23v0zM0 22.154v0zM25.626 23.384l0.020-10h-0.020v10zM25.612 29.538l0.020-10h-0.026l0.006 10zM22.496 26.95l-9.86 1.668 0.002 0.016 0.004 0.018 9.854-1.702zM22.482 26.876l-9.906 1.362 0.020 0.154 0.026 0.152 9.86-1.67zM20.018 27.278l9.86-1.668-0.026-0.15-0.030-0.148-9.804 1.966zM20.030 27.352l-9.86 1.67 0.004 0.016 9.856-1.686zM25.612 32l0.004-10h-0.006l0.002 10zM31.25 26.46l10 0.020v-0.020h-10zM30.302 23.384v-10h-18.892l10.624 15.624 8.268-5.624zM19.38-10c-0.001 0-0.002 0-0.002 0-4.341 0-8.327 1.52-11.455 4.057l0.034-0.027 12.56 15.564c-0.306 0.252-0.702 0.405-1.134 0.406h-0l-0.002-20zM7.954-5.97c-3.181 2.578-5.45 6.172-6.313 10.283l-0.021 0.117 19.6 3.988c-0.1 0.49-0.364 0.9-0.706 1.176l-12.56-15.564zM1.618 4.448l-0.146 0.718 19.608 3.954 0.144-0.718-19.604-3.954zM1.55 4.812c-0.196 0.784-0.308 1.684-0.308 2.611 0 0.68 0.060 1.345 0.176 1.991l-0.010-0.068 19.704-3.424c0.206 1.18 0.166 2.388-0.112 3.552l-19.45-4.662zM1.408 9.346c0.282 1.591 0.862 3.007 1.682 4.25l-0.026-0.042 16.752-10.926c0.622 0.94 1.075 2.049 1.288 3.241l0.008 0.053-19.704 3.424zM3.064 13.554c0.839 1.274 1.888 2.336 3.109 3.165l0.039 0.025 11.152-16.604c0.981 0.665 1.798 1.493 2.432 2.453l0.020 0.033-16.752 10.928zM6.212 16.744c1.17 0.796 2.547 1.387 4.030 1.688l0.072 0.012 3.866-19.622c1.208 0.243 2.277 0.702 3.217 1.34l-0.031-0.020-11.152 16.6zM10.314 18.444c1.46 0.288 2.966 0.284 4.426-0.014l-3.99-19.598c0.523-0.111 1.123-0.175 1.739-0.175 0.598 0 1.181 0.060 1.745 0.174l-0.056-0.010-3.864 19.622zM14.74 18.43c1.553-0.322 2.926-0.922 4.13-1.751l-0.038 0.025-11.26-16.53c0.905-0.624 1.972-1.090 3.121-1.33l0.057-0.010 3.99 19.594zM18.832 16.704c1.253-0.861 2.296-1.931 3.102-3.169l0.026-0.043-16.824-10.816c0.649-0.998 1.461-1.831 2.408-2.483l0.030-0.019 11.26 16.53zM21.96 13.492c0.786-1.206 1.356-2.627 1.619-4.153l0.009-0.067-19.726-3.292c0.213-1.246 0.659-2.357 1.295-3.334l-0.021 0.034 16.824 10.814zM23.52 9.642l0.148-0.716-19.59-4.034-0.148 0.716 19.59 4.034zM23.666 8.93c-0.235 1.124-0.864 2.071-1.734 2.711l-0.012 0.009-11.754-16.18c-3.068 2.244-5.262 5.525-6.070 9.318l-0.018 0.102 19.588 4.040zM21.92 11.65c-0.703 0.517-1.586 0.828-2.542 0.828-0.146 0-0.291-0.007-0.434-0.022l0.018 0.001 1.946-19.906c-0.459-0.048-0.991-0.075-1.53-0.075-3.462 0-6.662 1.122-9.257 3.022l0.044-0.031 11.754 16.18zM18.962 12.458c-1.104-0.113-2.070-0.624-2.769-1.385l-0.003-0.003 14.702-13.558c-2.533-2.737-6.014-4.563-9.918-4.955l-0.066-0.005-1.946 19.906zM16.19 11.070c-0.736-0.8-1.188-1.871-1.19-3.048v-0l20-0.050c-0.012-4.043-1.571-7.719-4.115-10.47l0.009 0.010-14.704 13.56zM15 8c0-1.234 0.5-2.384 1.336-3.208l14.034 14.248c2.857-2.811 4.627-6.719 4.63-11.040v-0h-20zM16.336 4.792c0.83-0.818 1.924-1.252 3.034-1.252l0.010 20c4.282-0 8.163-1.718 10.992-4.502l-0.002 0.002-14.036-14.25zM19.376 3.54h-18.128v20h18.126v-20zM1.25 3.54c-0 0-0 0-0 0-3.078 0-5.868 1.235-7.901 3.237l0.001-0.001 14.032 14.25c-1.576 1.554-3.742 2.513-6.132 2.514h-0v-20zM-6.65 6.776c-2.068 2.036-3.349 4.865-3.35 7.994v0h20c-0 2.447-1.002 4.661-2.617 6.253l-0.001 0.001-14.032-14.25zM-10 14.77c0 3.13 1.282 5.96 3.349 7.995l0.001 0.001 14.032-14.252c1.617 1.593 2.618 3.807 2.618 6.254 0 0.001 0 0.001 0 0.002v-0h-20zM-6.65 22.766c2.031 1.999 4.82 3.234 7.898 3.234 0.001 0 0.002 0 0.003 0h-0v-20c2.39 0.001 4.556 0.96 6.133 2.515l-0.001-0.001-14.032 14.252zM1.25 26h18.126v-20h-18.128v20zM19.616 25.996c4.888-0.118 9.28-2.147 12.477-5.365l0.001-0.001-14.204-14.080c0.317-0.327 0.755-0.534 1.241-0.55l0.003-0 0.482 20zM32.094 20.63c3.216-3.238 5.205-7.698 5.21-12.623v-0.001l-20-0.006c0-0.572 0.228-1.088 0.586-1.45l14.204 14.080zM37.304 8.006c-0.001-4.926-1.988-9.388-5.203-12.629l0.001 0.001-14.212 14.072c-0.362-0.371-0.586-0.879-0.586-1.439 0-0.004 0-0.008 0-0.011v0.001l20 0.006zM32.1-4.622c-3.196-3.221-7.586-5.252-12.451-5.374l-0.023-0-0.496 19.992c-0.488-0.016-0.925-0.222-1.242-0.546l-0-0 14.212-14.072zM33.748 1.078c-0.003 0-0.006 0-0.009 0-4.452 0-8.487 1.785-11.429 4.678l0.002-0.002 14.032 14.252c-0.666 0.661-1.583 1.070-2.596 1.072h-0v-20zM22.312 5.754c-2.97 2.922-4.81 6.984-4.812 11.476v0h20c0 1.072-0.434 2.066-1.154 2.774l-14.032-14.25zM17.5 17.23c0 3.030 1.224 5.902 3.35 7.996l14.032-14.25c1.616 1.593 2.618 3.807 2.618 6.254v0h-20zM20.85 25.226c2.031 2.001 4.821 3.236 7.9 3.236 0 0 0 0 0 0h-0v-20c2.39 0.001 4.556 0.96 6.133 2.515l-0.001-0.001-14.032 14.25zM28.75 28.462c0 0 0 0 0 0 3.078 0 5.868-1.235 7.901-3.237l-0.001 0.001-14.032-14.25c1.576-1.554 3.742-2.513 6.132-2.514h0v20zM36.65 25.226c2.068-2.036 3.349-4.867 3.35-7.996v-0h-20c0-2.447 1.002-4.661 2.617-6.253l0.001-0.001 14.032 14.25zM40 17.23c0 1.284-0.388 2.524-1.094 3.564l-16.546-11.23c-1.476 2.148-2.359 4.804-2.36 7.666v0h20zM38.906 20.794c-0.704 1.040-1.69 1.826-2.814 2.286l-7.554-18.52c-2.556 1.059-4.657 2.783-6.15 4.957l-0.030 0.047 16.548 11.23zM36.092 23.080c-0.692 0.29-1.495 0.458-2.338 0.458-0.422 0-0.835-0.042-1.234-0.123l0.040 0.007 3.844-19.626c-0.798-0.164-1.715-0.258-2.654-0.258-1.879 0-3.67 0.375-5.303 1.055l0.091-0.034 7.554 18.52zM32.56 23.422c-1.248-0.251-2.33-0.844-3.175-1.677l0.001 0.001 14.032-14.252c-1.866-1.838-4.256-3.148-6.926-3.685l-0.088-0.015-3.844 19.628zM29.386 21.746c-0.886-0.872-1.506-2.002-1.76-3.256l19.604-3.96c-0.575-2.778-1.924-5.178-3.81-7.034l-0.002-0.002-14.032 14.252zM27.626 18.49c-0.080-0.379-0.126-0.815-0.126-1.261 0-0.889 0.183-1.736 0.512-2.504l-0.016 0.041 18.436 7.756c0.675-1.562 1.068-3.381 1.068-5.291 0-0.956-0.098-1.889-0.285-2.789l0.015 0.088-19.604 3.96zM27.996 14.766c0.5-1.171 1.305-2.131 2.317-2.806l0.023-0.014 10.994 16.708c2.255-1.497 4.011-3.584 5.068-6.043l0.034-0.089-18.436-7.756zM30.336 11.946c0.961-0.64 2.142-1.022 3.412-1.022 0.001 0 0.001 0 0.002 0h-0v20c0.001 0 0.002 0 0.003 0 2.821 0 5.443-0.847 7.628-2.3l-0.051 0.032-10.992-16.71zM33.75 10.924h-32.5v20h32.5v-20zM1.25 10.924c-0.001 0-0.002 0-0.002 0-3.077 0-5.867 1.235-7.899 3.235l0.001-0.001 14.032 14.252c-1.576 1.552-3.741 2.51-6.13 2.51-0.001 0-0.002 0-0.002 0h0v-20zM-6.65 14.158c-2.068 2.036-3.35 4.866-3.35 7.996v0h20c0 0 0 0.001 0 0.002 0 2.447-1.001 4.661-2.617 6.253l-0.001 0.001-14.032-14.252zM-10 22.154c0 3.13 1.282 5.96 3.349 7.995l0.001 0.001 14.032-14.252c1.617 1.593 2.618 3.807 2.618 6.254 0 0.001 0 0.001 0 0.002v-0h-20zM-6.65 30.15c2.031 1.999 4.82 3.234 7.898 3.234 0.001 0 0.002 0 0.003 0h-0v-20c2.39 0.001 4.556 0.961 6.133 2.517l-0.001-0.001-14.032 14.252zM1.25 33.384h24.376v-20h-24.378v20zM25.606 33.384c-1.874-0.004-3.57-0.76-4.805-1.983l0.001 0.001 14.060-14.224c-2.369-2.34-5.624-3.788-9.217-3.794h-0.001l-0.040 20zM20.802 31.402c-1.272-1.26-2.060-3.007-2.060-4.938 0-0.006 0-0.011 0-0.017v0.001l20 0.040c0-0.007 0-0.015 0-0.023 0-3.633-1.484-6.919-3.879-9.286l-0.001-0.001-14.060 14.224zM18.742 26.448c0.003-1.937 0.798-3.687 2.079-4.945l0.001-0.001 14.004 14.28c2.412-2.364 3.91-5.653 3.918-9.292v-0.002l-20-0.040zM20.822 21.502c1.235-1.214 2.931-1.964 4.801-1.964 0.003 0 0.006 0 0.009 0h-0l-0.040 20c0.010 0 0.021 0 0.032 0 3.584 0 6.832-1.433 9.204-3.758l-0.002 0.002-14.004-14.28zM25.606 19.538c1.572 0 3.118 0.546 4.356 1.574l-12.78 15.386c2.267 1.892 5.211 3.040 8.423 3.040 0.005 0 0.010 0 0.015 0h-0.001l-0.014-20zM29.962 21.112c1.23 1.029 2.091 2.462 2.38 4.092l0.006 0.042-19.706 3.406c0.563 3.175 2.202 5.895 4.519 7.829l0.021 0.017 12.78-15.386zM32.354 25.28l-0.012-0.074-19.72 3.338 0.014 0.074 19.72-3.338zM32.39 25.512c-0.225-1.597-0.755-3.034-1.53-4.305l0.028 0.049-17.136 10.314c-0.585-0.956-1-2.082-1.171-3.285l-0.005-0.047 19.814-2.726zM30.888 21.256c-0.797-1.309-1.806-2.405-2.992-3.274l-0.032-0.022-11.756 16.18c-0.949-0.695-1.735-1.55-2.334-2.531l-0.022-0.039 17.136-10.314zM27.864 17.96c-1.144-0.839-2.493-1.478-3.953-1.832l-0.077-0.016-4.598 19.464c-1.193-0.288-2.24-0.784-3.152-1.453l0.024 0.017 11.756-16.18zM23.834 16.112c-0.778-0.192-1.672-0.302-2.591-0.302-0.643 0-1.273 0.054-1.887 0.157l0.066-0.009 3.232 19.736c-0.423 0.073-0.911 0.114-1.409 0.114-0.713 0-1.406-0.085-2.069-0.247l0.060 0.012 4.598-19.462zM19.42 15.958c-1.561 0.261-2.955 0.808-4.188 1.587l0.046-0.027 10.59 16.966c-0.921 0.584-2.004 1.008-3.165 1.203l-0.051 0.007-3.23-19.734zM15.278 17.518c-1.291 0.814-2.37 1.838-3.221 3.035l-0.023 0.035 16.36 11.504c-0.68 0.964-1.54 1.776-2.526 2.392l-10.588-16.966zM12.034 20.588c-0.835 1.174-1.46 2.56-1.786 4.058l-0.014 0.074 19.568 4.14c-0.266 1.229-0.755 2.314-1.426 3.259l0.018-0.027-16.36-11.504zM10.234 24.72c-0.154 0.698-0.243 1.499-0.243 2.321 0 0.78 0.080 1.542 0.231 2.277l-0.012-0.073 19.61-3.934c0.109 0.518 0.171 1.114 0.171 1.724 0 0.645-0.070 1.274-0.201 1.88l0.011-0.058-19.562-4.138zM10.154 28.948l0.014 0.074 19.72-3.34-0.012-0.072-19.72 3.338zM10.172 29.038c0.663 3.775 2.608 7.009 5.359 9.31l0.025 0.020 12.798-15.37c0.79 0.658 1.348 1.598 1.53 2.668l-19.71 3.374zM15.556 38.368c2.702 2.26 6.214 3.632 10.047 3.632 0.004 0 0.008 0 0.012 0h-0.001l-0.004-20c0.984 0 1.958 0.34 2.746 0.998l-12.798 15.37zM25.608 42c0.004 0 0.009 0 0.014 0 4.278 0 8.155-1.713 10.984-4.49l-0.002 0.002-14.016-14.266c0.778-0.768 1.846-1.243 3.026-1.246h0l-0.008 20zM36.604 37.512c2.86-2.808 4.636-6.712 4.646-11.030v-0.002l-20-0.036c0.002-1.23 0.5-2.378 1.336-3.2l14.018 14.268zM41.25 26.462c0-3.22-0.996-6.226-2.678-8.7l-16.54 11.246c-0.489-0.714-0.781-1.596-0.782-2.546v-0h20zM30.302 33.384h3.448v-20h-3.448v20zM33.75 33.384c0.003 0 0.006 0 0.009 0 4.452 0 8.487-1.785 11.429-4.678l-0.002 0.002-14.032-14.252c0.666-0.661 1.583-1.070 2.596-1.072h0v20zM45.186 28.708c2.971-2.922 4.812-6.985 4.814-11.478v-0h-20c0-1.070 0.434-2.064 1.154-2.774l14.032 14.252zM50 17.23c0-4.334-1.75-8.46-4.814-11.476l-14.032 14.25c-0.713-0.706-1.154-1.685-1.154-2.767 0-0.003 0-0.005 0-0.008v0h20zM45.186 5.754c-2.94-2.892-6.976-4.678-11.429-4.678-0.002 0-0.005 0-0.008 0h0v20c-1.013-0.002-1.93-0.411-2.596-1.072l0 0 14.032-14.25z"></path>
</svg>
